<svg width="48" height="48" version="1.1" viewBox="0 0 12.7 12.7" xml:space="preserve"
	xmlns="http://www.w3.org/2000/svg">
	<rect x="5.9366e-7" y="5.9165e-7" width="12.7" height="12.7" ry="6.35" fill="#f9f9f9" opacity=".95"
		stroke-width="0" />
	<g transform="matrix(.024848 0 0 .024848 .26458 .26458)" fill="#999">
		<g fill="#999">
			<path
				d="m20.701 281.9 32.1 0.2c4.8 24.7 14.3 48.7 28.7 70.5l-22.8 22.6c-8.2 8.1-8.2 21.2-0.2 29.4l24.6 24.9c8.1 8.2 21.2 8.2 29.4 0.2l22.8-22.6c21.6 14.6 45.5 24.5 70.2 29.5l-0.2 32.1c-0.1 11.5 9.2 20.8 20.7 20.9l35 0.2c11.5 0.1 20.8-9.2 20.9-20.7l0.2-32.1c24.7-4.8 48.7-14.3 70.5-28.7l22.6 22.8c8.1 8.2 21.2 8.2 29.4 0.2l24.9-24.6c8.2-8.1 8.2-21.2 0.2-29.4l-22.6-22.8c14.6-21.6 24.5-45.5 29.5-70.2l32.1 0.2c11.5 0.1 20.8-9.2 20.9-20.7l0.2-35c0.1-11.5-9.2-20.8-20.7-20.9l-32.1-0.2c-4.8-24.7-14.3-48.7-28.7-70.5l22.8-22.6c8.2-8.1 8.2-21.2 0.2-29.4l-24.6-24.9c-8.1-8.2-21.2-8.2-29.4-0.2l-22.8 22.6c-21.6-14.6-45.5-24.5-70.2-29.5l0.2-32.1c0.1-11.5-9.2-20.8-20.7-20.9l-35-0.2c-11.5-0.1-20.8 9.2-20.9 20.7l-0.3 32.1c-24.8 4.8-48.8 14.3-70.5 28.7l-22.6-22.8c-8.1-8.2-21.2-8.2-29.4-0.2l-24.8 24.6c-8.2 8.1-8.2 21.2-0.2 29.4l22.6 22.8c-14.6 21.6-24.5 45.5-29.5 70.2l-32.1-0.2c-11.5-0.1-20.8 9.2-20.9 20.7l-0.2 35c-0.1 11.4 9.2 20.8 20.7 20.9zm158.6-103.3c36.6-36.2 95.5-35.9 131.7 0.7s35.9 95.5-0.7 131.7-95.5 35.9-131.7-0.7-35.9-95.5 0.7-131.7z"
				fill="#999" />
		</g>
	</g>
	<g transform="matrix(.015446 0 0 .015352 2.623 2.6458)" fill="#333">
		<g fill="#333">
			<g fill="#333">
				<path
					d="m116.99 203.22c13.4-1.8 26.8 2.8 36.3 12.3l24 24 22.7-22.6-32.8-32.7c-5.1-5.1-5.1-13.4 0-18.5s13.4-5.1 18.5 0l32.8 32.8 22.7-22.6-24.1-24.1c-9.5-9.5-14.1-23-12.3-36.3 4-30.4-5.7-62.2-29-85.6-23.8-23.8-56.4-33.4-87.3-28.8-4.9 0.7-6.9 6.8-3.4 10.3l30.9 30.9c14.7 14.7 14.7 38.5 0 53.1l-19 19c-14.7 14.7-38.5 14.7-53.1 0l-31-30.9c-3.5-3.5-9.5-1.5-10.3 3.4-4.6 30.9 5 63.5 28.8 87.3 23.4 23.3 55.2 33 85.6 29z" />
				<path
					d="m309.19 243.92-22.7 22.6 134.8 134.8c5.1 5.1 5.1 13.4 0 18.5s-13.4 5.1-18.5 0l-134.8-134.8-22.7 22.6 138.9 138.9c17.6 17.6 46.1 17.5 63.7-0.1s17.6-46.1 0.1-63.7z" />
				<path
					d="m361.29 153.92h59.9l59.9-119.7-29.9-29.9-119.8 59.8v59.9l-162.8 162.3-29.3-29.2-118 118c-24.6 24.6-24.6 64.4 0 89s64.4 24.6 89 0l118-118-29.9-29.9z" />
			</g>
		</g>
	</g>
	<rect x="-5.5812" y="-2.3937" width="2.3272" height="4.1523" fill-opacity="0" opacity=".95" stroke-width="0" />
</svg>
